<?xml version="1.0" standalone="no"?>
<!DOCTYPE svg PUBLIC "-//W3C//DTD SVG 20010904//EN"
 "http://www.w3.org/TR/2001/REC-SVG-20010904/DTD/svg10.dtd">
<svg version="1.0" xmlns="http://www.w3.org/2000/svg"
 width="84.000000pt" height="84.000000pt" viewBox="0 0 84.000000 84.000000"
 preserveAspectRatio="xMidYMid meet">
<metadata>
Created by potrace 1.11, written by Peter Selinger 2001-2013
</metadata>
<g transform="translate(0.000000,84.000000) scale(0.100000,-0.100000)"
fill="#000000" stroke="none">
<path d="M353 825 c-167 -46 -267 -151 -303 -317 -10 -44 -10 -66 -1 -105 21
-84 68 -169 117 -212 l46 -40 -47 -62 c-36 -48 -44 -64 -33 -70 19 -12 63 -11
146 5 55 10 82 11 108 3 25 -8 47 -8 75 0 30 8 60 7 117 -3 152 -27 169 -18
116 57 -21 30 -42 57 -47 60 -5 4 13 28 40 55 133 134 148 331 36 486 -79 109
-251 176 -370 143z m15 -60 c0 -14 -4 -25 -9 -25 -5 0 -9 7 -9 15 0 8 -6 15
-12 15 -9 0 -8 4 2 10 23 15 28 12 28 -15z m31 -2 c0 -25 -1 -25 -8 -8 -5 11
-7 23 -4 28 8 14 13 7 12 -20z m54 7 c4 -16 0 -20 -18 -20 -18 0 -22 4 -18 20
3 11 11 20 18 20 7 0 15 -9 18 -20z m37 9 c0 -8 5 -8 15 1 12 10 15 10 15 -1
0 -23 -16 -43 -24 -30 -4 6 -12 9 -17 6 -5 -4 -9 3 -9 14 0 12 5 21 10 21 6 0
10 -5 10 -11z m-180 -19 c-13 -8 -12 -10 3 -10 26 0 20 -19 -10 -31 -22 -8
-30 -7 -40 7 -7 10 -10 20 -7 23 3 3 11 -2 18 -11 7 -10 17 -13 25 -9 10 6 9
10 -4 15 -20 7 -10 26 13 26 15 0 15 -2 2 -10z m258 2 c17 -12 4 -42 -18 -42
-22 0 -32 24 -17 39 13 13 18 13 35 3z m84 -19 c19 -17 24 -43 8 -43 -5 0 -10
7 -10 15 0 18 -26 20 -36 3 -4 -6 0 -16 9 -23 22 -16 10 -27 -14 -14 -24 12
-24 48 -1 65 22 17 22 17 44 -3z m-392 -47 c0 -5 -3 -7 -6 -3 -8 7 -27 -11
-43 -41 -14 -27 -48 -26 -65 1 -14 21 2 51 30 55 18 3 18 2 2 -11 -20 -16 -23
-33 -7 -42 13 -9 52 32 44 46 -4 5 -1 17 6 25 12 14 14 14 26 -2 7 -10 13 -22
13 -28z m243 -2 c18 -16 23 -19 13 -6 -16 19 -17 22 -3 22 9 0 18 -4 22 -10 3
-5 12 -7 21 -3 23 9 128 -101 121 -127 -3 -11 -1 -18 3 -15 13 8 30 -54 30
-108 0 -52 -44 -161 -75 -187 -18 -15 -49 -5 -39 12 5 8 0 7 -11 -2 -17 -14
-17 -15 -1 -18 9 -2 15 -9 13 -15 -6 -19 -63 -48 -81 -41 -15 6 -15 9 6 32 13
15 4 10 -20 -11 -46 -40 -57 -45 -48 -22 3 9 0 15 -8 15 -11 0 -11 10 -2 58
l12 57 41 -1 c34 0 43 4 52 23 8 18 8 30 -1 46 -12 22 -14 28 -17 48 0 5 -5 8
-10 5 -5 -3 -14 15 -22 41 -7 26 -21 55 -31 65 -10 10 -18 28 -18 40 0 16 -3
19 -11 11 -9 -9 -9 -23 -1 -52 5 -23 9 -41 7 -41 -1 0 -16 7 -31 15 -16 8 -39
15 -50 15 -24 0 -37 23 -29 51 10 29 -10 30 -73 1 -53 -24 -59 -29 -52 -48 5
-12 5 -38 0 -58 -9 -40 -5 -110 7 -129 13 -19 33 -81 33 -99 0 -21 4 -22 32
-7 22 12 72 4 64 -10 -3 -5 1 -15 10 -22 14 -12 13 -14 -6 -21 -27 -10 -72 12
-123 61 -21 20 -35 28 -32 19 5 -11 -2 -22 -19 -34 -25 -16 -28 -16 -46 1 -21
19 -27 45 -10 45 6 0 10 -7 10 -15 0 -8 8 -15 18 -15 29 0 34 12 15 33 -17 19
-17 20 5 14 19 -4 21 -3 12 8 -7 8 -9 18 -6 24 3 5 1 11 -4 13 -16 5 -28 68
-25 122 6 82 58 167 135 219 35 24 50 21 20 -4 -25 -21 -14 -16 45 20 47 28
118 21 158 -15z m177 -35 c0 -11 5 -17 10 -14 6 3 10 2 10 -4 0 -5 -5 -13 -10
-16 -15 -9 -2 -25 21 -25 12 0 19 -7 18 -17 0 -11 -3 -13 -6 -5 -2 6 -9 12
-15 12 -6 0 -8 -7 -4 -15 10 -27 -2 -16 -18 16 -9 17 -13 35 -10 40 3 5 -2 9
-10 9 -18 0 -29 16 -21 30 11 18 35 11 35 -11z m-355 -70 c-4 -5 -4 -21 -1
-34 5 -18 15 -26 41 -31 19 -3 35 -8 35 -11 0 -12 -60 -63 -74 -63 -9 0 -16
-4 -16 -10 0 -5 -4 -10 -10 -10 -5 0 -11 17 -11 38 -2 30 -3 32 -6 10 -2 -16
-8 -28 -13 -28 -11 0 -2 -59 11 -76 5 -6 27 -10 49 -10 22 1 40 -2 40 -6 0 -4
6 -5 14 -2 9 3 15 -5 20 -27 10 -49 8 -59 -10 -52 -9 3 -19 0 -24 -7 -6 -9
-12 -9 -29 0 -17 8 -31 9 -53 1 -18 -6 -29 -8 -25 -5 3 4 0 19 -9 35 -8 16
-12 29 -9 29 3 0 -1 13 -9 29 -11 20 -15 54 -13 112 l2 84 35 22 c36 24 76 31
65 12z m-178 -15 c3 -8 1 -20 -6 -27 -14 -14 -47 15 -37 32 10 16 36 13 43 -5z
m603 -35 c0 -6 -6 -9 -13 -6 -8 3 -14 -1 -14 -9 0 -8 6 -14 13 -14 18 0 28
-20 16 -32 -6 -6 -15 -2 -26 13 -22 32 -21 59 4 59 11 0 20 -5 20 -11z m-630
-9 c12 -8 11 -10 -7 -10 -13 0 -23 5 -23 10 0 13 11 13 30 0z m6 -55 c-8 -22
-40 -15 -43 10 -2 11 0 14 3 8 3 -7 13 -13 22 -12 11 0 12 2 4 6 -6 2 -9 9 -6
15 10 16 28 -8 20 -27z m324 15 c0 -5 -4 -10 -10 -10 -5 0 -10 5 -10 10 0 6 5
10 10 10 6 0 10 -4 10 -10z m303 -37 c-7 -2 -19 -2 -25 0 -7 3 -2 5 12 5 14 0
19 -2 13 -5z m-634 -34 c-17 -10 -31 -7 -37 9 -2 7 5 10 17 7 12 -2 21 2 22 8
0 8 3 7 6 -2 3 -7 -1 -17 -8 -22z m641 2 c0 -13 -6 -19 -19 -18 -12 1 -19 8
-18 19 2 25 37 24 37 -1z m-232 -21 c19 -42 11 -55 -31 -56 -40 -2 -50 10 -16
19 12 3 18 10 14 16 -7 13 3 51 13 51 4 0 13 -13 20 -30z m-86 -12 c-14 -14
-46 -2 -36 13 4 8 9 7 15 -2 6 -10 10 -9 15 6 5 12 9 15 12 6 2 -7 0 -17 -6
-23z m-306 -7 c-4 -6 -16 -11 -27 -11 -18 0 -18 1 -1 19 17 18 40 12 28 -8z
m615 -4 c-6 -8 -8 -17 -4 -20 3 -4 -1 -7 -10 -7 -10 0 -15 8 -14 20 1 12 8 20
20 20 15 0 17 -3 8 -13z m-597 -48 c-9 -14 -41 -10 -48 6 -8 22 26 38 41 18 7
-9 10 -20 7 -24z m592 0 c4 -8 -1 -9 -17 -4 -20 6 -22 5 -11 -6 17 -18 15 -34
-3 -19 -8 7 -15 19 -15 26 0 17 36 19 46 3z m-36 -55 c0 -16 -2 -16 -24 -8
-13 5 -14 9 -5 20 13 16 29 9 29 -12z m-290 -43 c0 -16 6 -31 13 -34 6 -2 8
-8 4 -13 -5 -5 -17 2 -27 16 -12 15 -20 19 -20 11 0 -11 -4 -10 -19 3 -16 14
-17 21 -8 32 7 7 22 13 35 14 18 0 22 -5 22 -29z m7 -84 c3 -5 9 -4 13 3 4 7
13 9 19 6 16 -11 13 -46 -4 -46 -8 0 -15 5 -15 11 0 8 -5 7 -16 -2 -14 -11
-18 -10 -30 6 -13 17 -19 14 -15 -7 2 -11 -17 -10 -24 1 -3 5 0 13 6 17 8 4 7
9 -2 15 -9 5 0 8 24 7 21 -1 40 -6 44 -11z m79 -2 c18 -17 10 -35 -14 -35 -15
0 -15 2 -2 11 11 8 12 12 3 16 -13 5 -18 23 -7 23 3 0 12 -7 20 -15z m-198
-41 c23 -8 58 -14 77 -14 24 0 35 -5 35 -14 0 -12 -6 -12 -29 -3 -23 8 -46 7
-108 -7 -49 -11 -86 -15 -100 -9 l-22 8 21 33 c23 36 33 37 126 6z m363 -5
c18 -26 19 -33 8 -40 -20 -13 -41 -11 -116 8 -53 13 -72 14 -96 5 -32 -12 -43
-10 -33 6 3 5 25 12 48 15 24 4 66 13 93 21 69 20 71 20 96 -15z m-276 -41
c14 -6 25 -15 25 -20 0 -5 -10 -4 -21 3 -14 7 -43 9 -78 5 -145 -17 -181 -18
-181 -7 0 9 13 10 43 6 23 -3 66 1 97 9 71 18 84 18 115 4z m172 -4 c38 -9 84
-13 106 -10 24 4 37 2 37 -5 0 -11 -19 -11 -186 7 -41 4 -64 2 -68 -5 -8 -13
-26 -15 -26 -3 0 10 38 30 57 31 6 1 42 -6 80 -15z"/>
<path d="M547 753 c-4 -3 -7 -11 -7 -17 0 -6 5 -5 12 2 6 6 9 14 7 17 -3 3 -9
2 -12 -2z"/>
<path d="M359 692 l-24 -27 26 23 c19 17 28 20 31 11 3 -9 6 -10 11 -2 15 24
-22 20 -44 -5z"/>
<path d="M445 700 c3 -5 8 -10 11 -10 2 0 4 5 4 10 0 6 -5 10 -11 10 -5 0 -7
-4 -4 -10z"/>
<path d="M247 631 c-9 -16 -17 -33 -17 -38 0 -4 9 7 20 24 14 23 25 31 37 27
15 -5 16 -4 3 5 -21 15 -24 14 -43 -18z"/>
<path d="M320 645 c-7 -9 -8 -15 -2 -15 5 0 12 7 16 15 3 8 4 15 2 15 -2 0 -9
-7 -16 -15z"/>
<path d="M530 651 c0 -5 5 -13 10 -16 6 -3 10 -2 10 4 0 5 -4 13 -10 16 -5 3
-10 2 -10 -4z"/>
<path d="M597 636 c10 -13 19 -23 21 -21 5 5 -22 45 -31 45 -4 0 0 -11 10 -24z"/>
<path d="M370 629 c0 -5 5 -7 10 -4 6 3 10 8 10 11 0 2 -4 4 -10 4 -5 0 -10
-5 -10 -11z"/>
<path d="M465 630 c3 -5 8 -10 11 -10 2 0 4 5 4 10 0 6 -5 10 -11 10 -5 0 -7
-4 -4 -10z"/>
<path d="M570 545 c0 -8 4 -15 10 -15 5 0 7 7 4 15 -4 8 -8 15 -10 15 -2 0 -4
-7 -4 -15z"/>
<path d="M635 540 c3 -5 8 -10 11 -10 2 0 4 5 4 10 0 6 -5 10 -11 10 -5 0 -7
-4 -4 -10z"/>
<path d="M580 450 c0 -5 5 -10 11 -10 5 0 7 5 4 10 -3 6 -8 10 -11 10 -2 0 -4
-4 -4 -10z"/>
<path d="M640 450 c0 -5 5 -10 10 -10 6 0 10 5 10 10 0 6 -4 10 -10 10 -5 0
-10 -4 -10 -10z"/>
<path d="M625 360 c3 -5 8 -10 11 -10 2 0 4 5 4 10 0 6 -5 10 -11 10 -5 0 -7
-4 -4 -10z"/>
<path d="M465 280 c-3 -5 -1 -10 4 -10 6 0 11 5 11 10 0 6 -2 10 -4 10 -3 0
-8 -4 -11 -10z"/>
<path d="M539 219 l-24 -20 28 17 c15 9 27 18 27 20 0 8 -8 4 -31 -17z"/>
<path d="M655 660 c-3 -5 -1 -10 4 -10 6 0 11 5 11 10 0 6 -2 10 -4 10 -3 0
-8 -4 -11 -10z"/>
<path d="M120 570 c0 -5 5 -10 11 -10 5 0 7 5 4 10 -3 6 -8 10 -11 10 -2 0 -4
-4 -4 -10z"/>
<path d="M120 340 c0 -5 5 -10 10 -10 6 0 10 5 10 10 0 6 -4 10 -10 10 -5 0
-10 -4 -10 -10z"/>
<path d="M451 134 c0 -11 3 -14 6 -6 3 7 2 16 -1 19 -3 4 -6 -2 -5 -13z"/>
<path d="M400 129 c0 -5 5 -7 10 -4 6 3 10 8 10 11 0 2 -4 4 -10 4 -5 0 -10
-5 -10 -11z"/>
<path d="M230 91 c0 -5 5 -13 10 -16 6 -3 10 -2 10 4 0 5 -4 13 -10 16 -5 3
-10 2 -10 -4z"/>
<path d="M592 88 c6 -18 28 -21 28 -4 0 9 -7 16 -16 16 -9 0 -14 -5 -12 -12z"/>
</g>
</svg>
